<svg width="14" height="16" viewBox="0 0 14 16" fill="none" xmlns="http://www.w3.org/2000/svg">
<path fill-rule="evenodd" clip-rule="evenodd" d="M9.1875 15.25C9.1875 15.5952 8.90768 15.875 8.5625 15.875H6.375C6.02982 15.875 5.75 15.5952 5.75 15.25V10.875C5.75 10.5298 6.02982 10.25 6.375 10.25C6.72018 10.25 7 10.5298 7 10.875V14.625H8.5625C8.90768 14.625 9.1875 14.9048 9.1875 15.25ZM4.23828 10.3664C4.10339 10.2701 3.93576 10.2312 3.77225 10.2585C3.60874 10.2857 3.46275 10.3768 3.36641 10.5117L2.3125 11.9875L1.25859 10.5117C1.13328 10.3189 0.912218 10.2105 0.683049 10.2294C0.453881 10.2484 0.253626 10.3916 0.161684 10.6024C0.0697412 10.8132 0.100962 11.0574 0.242969 11.2383L1.54453 13.0625L0.241406 14.8867C0.0592136 15.167 0.129892 15.5411 0.401806 15.7356C0.67372 15.9302 1.05057 15.8762 1.25703 15.6133L2.3125 14.1375L3.36641 15.6133C3.57287 15.8762 3.94972 15.9302 4.22163 15.7356C4.49355 15.5411 4.56422 15.167 4.38203 14.8867L3.08047 13.0625L4.38359 11.2383C4.47995 11.1034 4.51877 10.9358 4.49151 10.7722C4.46426 10.6087 4.37317 10.4628 4.23828 10.3664ZM11.968 12.3836C11.6555 12.293 11.332 12.2 11.1516 12.0836C11.0539 12.0195 11.0555 12.0055 11.0641 11.9352C11.0664 11.8199 11.1247 11.7129 11.2203 11.6484C11.5797 11.4047 12.4187 11.5141 12.7688 11.6047C13.1027 11.6925 13.4446 11.4929 13.5324 11.159C13.6202 10.825 13.4207 10.4831 13.0867 10.3953C12.9219 10.3523 11.4461 9.9875 10.5219 10.6109C10.1274 10.8775 9.87129 11.3053 9.82266 11.7789C9.66641 13.0195 10.8891 13.3734 11.6195 13.5844C12.5617 13.857 12.6445 13.9688 12.618 14.1773C12.5938 14.3656 12.5195 14.4375 12.45 14.4844C12.0906 14.7234 11.2656 14.6055 10.9234 14.5117C10.5901 14.4192 10.2449 14.6143 10.1523 14.9477C10.0598 15.281 10.255 15.6262 10.5883 15.7188C10.9757 15.8208 11.3744 15.8733 11.775 15.875C12.2297 15.875 12.7359 15.7969 13.1414 15.5266C13.5464 15.2572 13.8096 14.8206 13.8586 14.3367C14.0312 12.9844 12.7406 12.607 11.968 12.3836ZM0.125 7.75V2.125C0.125 1.43464 0.684644 0.875 1.375 0.875H8.875C9.04081 0.87487 9.19988 0.940632 9.31719 1.05781L13.6922 5.43281C13.8094 5.55012 13.8751 5.70919 13.875 5.875V7.75C13.875 8.09518 13.5952 8.375 13.25 8.375C12.9048 8.375 12.625 8.09518 12.625 7.75V6.5H8.875C8.52982 6.5 8.25 6.22018 8.25 5.875V2.125H1.375V7.75C1.375 8.09518 1.09518 8.375 0.75 8.375C0.404822 8.375 0.125 8.09518 0.125 7.75ZM9.5 5.25H11.7406L9.5 3.00859V5.25Z" fill="#0D141C"/>
</svg>
