<svg width="20" height="20" viewBox="0 0 20 20" fill="none" xmlns="http://www.w3.org/2000/svg">
<g clip-path="url(#clip0_2_180)">
<path fill-rule="evenodd" clip-rule="evenodd" d="M16.6922 6.43281L12.3172 2.05781C12.1999 1.94063 12.0408 1.87487 11.875 1.875H4.375C3.68464 1.875 3.125 2.43464 3.125 3.125V16.875C3.125 17.5654 3.68464 18.125 4.375 18.125H15.625C16.3154 18.125 16.875 17.5654 16.875 16.875V6.875C16.8751 6.70919 16.8094 6.55012 16.6922 6.43281ZM12.5 4.00859L14.7414 6.25H12.5V4.00859ZM15.625 16.875H4.375V3.125H11.25V6.875C11.25 7.22018 11.5298 7.5 11.875 7.5H15.625V16.875Z" fill="#0D141C"/>
</g>
<defs>
<clipPath id="clip0_2_180">
<rect width="20" height="20" fill="white"/>
</clipPath>
</defs>
</svg>
